<svg id="Layer_1" data-name="Layer 1" xmlns="http://www.w3.org/2000/svg" viewBox="0 0 400 116.93"><title>Logo Negative</title><g id="Logo"><path id="iGEM" d="M2.61,54.1v-39h7.67v39Zm0-44.61V1.34h7.67V9.49Zm73,44.61H69.42l-1.11-7.19c-6,6.09-11.86,8.54-20.56,8.54-16.69,0-28-11.08-28-27.53C19.74,11.23,31.53,0,48.93,0,57.16,0,64.2,2.53,69,7.2c3.09,3.08,4.67,5.93,6,10.91H66.41c-1.26-3.56-2.45-5.3-5-7.27a20.46,20.46,0,0,0-12.66-4c-12.57,0-20.88,8.23-20.88,20.57,0,12.81,8.31,21.12,21,21.12,6.73,0,12.26-2.46,15.82-6.89,2-2.53,2.93-4.82,3.64-9H51V25.31h24.6Zm55,0H86.71V1.34H129.9V8.7h-35V23.49h33v7.36h-33v15.9h35.75Zm75.27,0h-8.14V10.76L176.46,54.1h-7.28L148.46,10.76V54.1h-8.15V1.34H152L173.14,46,194.57,1.34h11.31Z"/><path id="stockholm" d="M38.52,89.08H30.77c-.63-4.9-4-7.11-11.07-7.11-6.17,0-10.29,2-10.29,5.22a4.09,4.09,0,0,0,2.93,3.56c1.58.63,3,.87,9.49,1.89,10.6,1.66,12,2,14.32,3.64a9.6,9.6,0,0,1,3.79,8.07c0,8.15-6.88,12.58-19.53,12.58S1.5,112.73,0,103.24H8c.55,5,4.9,7.6,12.5,7.6,7.43,0,11.54-2.06,11.54-5.7a3.77,3.77,0,0,0-2.37-3.56c-1.5-.63-1.5-.63-9.65-1.9C12.5,98.5,10.52,98,7.91,97A9.59,9.59,0,0,1,1.74,87.9c0-7.52,6.8-12,18.35-12S37.57,80.07,38.52,89.08Zm17.89-23V76.9H65.5v6.33H56.41V105.7c0,3.55,1,4.42,4.9,4.42a19.93,19.93,0,0,0,4.19-.39v6.41a43.24,43.24,0,0,1-6.25.55c-3.87,0-6.88-.87-8.54-2.53-1.58-1.5-2-3.24-2-8.23V83.23H43.67V76.9h5.06V66.07Zm35.13,9.81c13.28,0,22.46,8.54,22.46,20.88,0,11.7-9.57,20.17-22.7,20.17-13.37,0-22.7-8.47-22.7-20.57S77.93,75.88,91.54,75.88ZM91.46,82c-9,0-14.95,5.69-14.95,14.39s5.93,14.48,14.79,14.48c8.7,0,14.79-5.86,14.79-14.16C106.09,87.82,100.24,82,91.46,82Zm62.42,19.77h7.51c-2.06,9.73-9.25,15.19-19.85,15.19-13.37,0-21.44-7.68-21.44-20.33,0-12.82,8.23-20.72,21.44-20.72,10.36,0,17.56,5.14,19.53,13.84h-7.43c-1.74-5.14-5.85-7.83-11.95-7.83-8.78,0-13.92,5.38-13.92,14.39s5.3,14.56,14,14.56C148.1,110.84,152.06,107.83,153.88,101.74Zm15.27-38.6h7.67V93.2l20-16.3h11.23L189.48,91.69l20.8,24.21H199.92L183.55,96.44l-6.73,5.3V115.9h-7.67Zm46.28,52.76V63.14h7.68v19.3c5-4.9,8.86-6.56,15.18-6.56,4.91,0,9.18,1.42,12.11,4,2.68,2.37,3.71,5.38,3.71,11.15V115.9h-7.67V91.62c0-3.88-.63-5.46-2.69-7.12a10.71,10.71,0,0,0-7-2.14c-7.51,0-13.68,4.91-13.68,10.84v22.7Zm69.62-40c13.29,0,22.46,8.54,22.46,20.88,0,11.7-9.57,20.17-22.7,20.17-13.36,0-22.7-8.47-22.7-20.57S271.45,75.88,285.05,75.88ZM285,82c-9,0-15,5.69-15,14.39s5.93,14.48,14.79,14.48c8.7,0,14.79-5.86,14.79-14.16C299.6,87.82,293.75,82,285,82Zm38.29-18.83V115.9h-7.67V63.14Zm10,13.76h7.67v5.62c4.27-4.51,9-6.64,14.79-6.64,6.33,0,10.84,2.37,13.61,7.19,4.9-5.22,9-7.19,15.34-7.19,5.54,0,10.37,2.05,12.9,5.37,1.9,2.61,2.45,5.15,2.45,12v22.7h-7.67V93.36c0-4.91-.4-6.33-2-8.07a10.31,10.31,0,0,0-7.75-2.93c-7.36,0-12.26,4.19-12.26,10.52v23h-7.67V93.12c0-5.14-.32-6.49-2-8.15a10.83,10.83,0,0,0-7.52-2.61,15,15,0,0,0-8.7,2.77c-2.37,1.82-3.56,4.51-3.56,8.15V115.9h-7.67Z"/></g></svg>