<svg id="Layer_1" data-name="Layer 1" xmlns="http://www.w3.org/2000/svg" viewBox="0 0 334.55 155.82"><defs><style>.cls-1{fill:#010101;}.cls-2{fill:none;}.cls-3{fill:#fff;}</style></defs><title>esther</title><rect class="cls-1" x="209" y="73.21" width="77.6" height="9.42"/><path class="cls-1" d="M203.74,401.78a48.93,48.93,0,1,1,48.93-48.93A49,49,0,0,1,203.74,401.78Zm0-88.44a39.51,39.51,0,1,0,39.51,39.51A39.55,39.55,0,0,0,203.74,313.34Z" transform="translate(-118.67 -274.93)"/><rect class="cls-2" x="170.15" y="9.42" width="154.98" height="136.98"/><circle class="cls-1" cx="203.74" cy="352.85" r="39.51" transform="translate(-308.5 -27.52) rotate(-45)"/><path class="cls-1" d="M288.82,274.93H118.67V430.75H453.22V274.93ZM203.74,401.78a48.93,48.93,0,1,1,48.93-48.93A49,49,0,0,1,203.74,401.78ZM443.8,421.33h-155v-137h155Z" transform="translate(-118.67 -274.93)"/><path class="cls-3" d="M203.74,303.92a48.93,48.93,0,1,0,48.93,48.93A49,49,0,0,0,203.74,303.92Zm0,88.44a39.51,39.51,0,1,1,39.51-39.51A39.55,39.55,0,0,1,203.74,392.36Z" transform="translate(-118.67 -274.93)"/></svg>